<svg xmlns="http://www.w3.org/2000/svg" xmlns:xlink="http://www.w3.org/1999/xlink" viewBox="480 520 615 505" preserveAspectRatio="xMidYMid meet" version="1.0"><defs><filter x="0%" y="0%" width="100%" height="100%" id="5a2eeb51b3"><feColorMatrix values="0 0 0 0 1 0 0 0 0 1 0 0 0 0 1 0 0 0 1 0" color-interpolation-filters="sRGB"/></filter><g/><mask id="d9f6fa3427"><g filter="url(#5a2eeb51b3)"><rect x="-150" width="1800" fill="#000000" y="-149.999993" height="1799.99992" fill-opacity="0.26"/></g></mask><clipPath id="fdb88c2dd6"><path d="M 0.480469 0.558594 L 326.878906 0.558594 L 326.878906 334.160156 L 0.480469 334.160156 Z M 0.480469 0.558594 " clip-rule="nonzero"/></clipPath><clipPath id="ff86efa196"><rect x="0" width="327" y="0" height="335"/></clipPath><clipPath id="31e46199f4"><rect x="0" width="327" y="0" height="335"/></clipPath><clipPath id="b6fd3e525b"><rect x="0" width="600" y="0" height="184"/></clipPath><clipPath id="c2c039cdf0"><rect x="0" width="301" y="0" height="361"/></clipPath><clipPath id="ce8d690201"><rect x="0" width="327" y="0" height="335"/></clipPath></defs><g mask="url(#d9f6fa3427)"><g transform="matrix(1, 0, 0, 1, 810, 466)"><g clip-path="url(#31e46199f4)"><g clip-path="url(#fdb88c2dd6)"><g transform="matrix(1, 0, 0, 1, 0, 0.000000000000113687)"><g clip-path="url(#ff86efa196)"><g fill="#efbf04" fill-opacity="1"><g transform="translate(260.559375, 334.038857)"><g><path d="M -256.34375 -244.203125 C -256.34375 -247.015625 -255.554688 -248.894531 -253.984375 -249.84375 C -252.410156 -250.800781 -250.382812 -250.71875 -247.90625 -249.59375 L -4.046875 -139.5625 C 1.234375 -137.09375 3.875 -133.773438 3.875 -129.609375 L 3.875 -128.9375 C 3.875 -124.4375 1.234375 -121.0625 -4.046875 -118.8125 L -247.75 -8.9375 C -250.332031 -7.8125 -252.410156 -7.785156 -253.984375 -8.859375 C -255.554688 -9.929688 -256.34375 -11.875 -256.34375 -14.6875 L -256.34375 -50.625 C -256.34375 -52.875 -255.722656 -54.726562 -254.484375 -56.1875 C -253.253906 -57.65625 -251.738281 -58.785156 -249.9375 -59.578125 L -88.09375 -129.4375 L -249.9375 -199.140625 C -251.851562 -200.035156 -253.398438 -201.210938 -254.578125 -202.671875 C -255.753906 -204.140625 -256.34375 -205.832031 -256.34375 -207.75 Z M -256.34375 -244.203125 "/></g></g></g></g></g></g></g></g></g><g transform="matrix(1, 0, 0, 1, 499, 826)"><g clip-path="url(#b6fd3e525b)"><g fill="#efbf04" fill-opacity="1"><g transform="translate(0.99751, 145.014063)"><g><path d="M 10.15625 0 L 10.15625 -104.765625 L 39.90625 -104.765625 L 70.25 -43.484375 L 100.4375 -104.765625 L 130.171875 -104.765625 L 130.171875 0 L 105.96875 0 L 105.8125 -66.359375 L 79.0625 -10.46875 L 61.421875 -10.46875 L 34.53125 -66.359375 L 34.53125 0 Z M 10.15625 0 "/></g></g></g><g fill="#efbf04" fill-opacity="1"><g transform="translate(173.312909, 145.014063)"><g><path d="M 60.078125 -106.40625 C 70.742188 -106.40625 80.382812 -104.0625 89 -99.375 C 97.613281 -94.695312 104.382812 -88.273438 109.3125 -80.109375 C 114.25 -71.941406 116.71875 -62.773438 116.71875 -52.609375 C 116.71875 -42.347656 114.25 -33.082031 109.3125 -24.8125 C 104.382812 -16.539062 97.613281 -10.015625 89 -5.234375 C 80.382812 -0.453125 70.742188 1.9375 60.078125 1.9375 C 49.421875 1.9375 39.78125 -0.425781 31.15625 -5.15625 C 22.539062 -9.882812 15.765625 -16.410156 10.828125 -24.734375 C 5.898438 -33.054688 3.4375 -42.347656 3.4375 -52.609375 C 3.4375 -62.773438 5.898438 -71.941406 10.828125 -80.109375 C 15.765625 -88.273438 22.539062 -94.695312 31.15625 -99.375 C 39.78125 -104.0625 49.421875 -106.40625 60.078125 -106.40625 Z M 60.375 -83.25 C 55.195312 -83.25 50.390625 -81.898438 45.953125 -79.203125 C 41.523438 -76.515625 38.015625 -72.804688 35.421875 -68.078125 C 32.828125 -63.347656 31.53125 -58.140625 31.53125 -52.453125 C 31.53125 -46.679688 32.847656 -41.425781 35.484375 -36.6875 C 38.128906 -31.957031 41.644531 -28.222656 46.03125 -25.484375 C 50.414062 -22.742188 55.195312 -21.375 60.375 -21.375 C 65.5625 -21.375 70.320312 -22.742188 74.65625 -25.484375 C 78.988281 -28.222656 82.398438 -31.957031 84.890625 -36.6875 C 87.378906 -41.425781 88.625 -46.679688 88.625 -52.453125 C 88.625 -58.140625 87.378906 -63.347656 84.890625 -68.078125 C 82.398438 -72.804688 78.988281 -76.515625 74.65625 -79.203125 C 70.320312 -81.898438 65.5625 -83.25 60.375 -83.25 Z M 60.375 -83.25 "/></g></g></g><g fill="#000000" fill-opacity="1"><g transform="translate(323.964981, 145.014063)"><g><path d="M 40.359375 0 L -0.296875 -104.765625 L 29.140625 -104.765625 L 55.296875 -29 L 81.59375 -104.765625 L 109.703125 -104.765625 L 68.75 0 Z M 40.359375 0 "/></g></g></g><g fill="#000000" fill-opacity="1"><g transform="translate(465.344722, 145.014063)"><g><path d="M 10.15625 0 L 10.15625 -104.765625 L 92.8125 -104.765625 L 92.8125 -82.953125 L 37.515625 -82.953125 L 37.515625 -63.375 L 87.4375 -63.375 L 87.4375 -41.703125 L 37.515625 -41.546875 L 37.515625 -21.8125 L 94.3125 -21.8125 L 94.3125 0 Z M 10.15625 0 "/></g></g></g></g></g><g transform="matrix(1, 0, 0, 1, 577, 459)"><g clip-path="url(#c2c039cdf0)"><g fill="#000000" fill-opacity="1"><g transform="translate(240.566988, 360.155558)"><g><path d="M -6.890625 -276.8125 C -4.441406 -277.019531 -2.65625 -276.507812 -1.53125 -275.28125 C -0.40625 -274.0625 0.15625 -272.328125 0.15625 -270.078125 L 0.15625 -240.40625 C 0.15625 -238.257812 -0.351562 -236.597656 -1.375 -235.421875 C -2.394531 -234.253906 -4.078125 -233.566406 -6.421875 -233.359375 L -119.96875 -222.34375 L -2.75 -153.328125 C -0.613281 -152.003906 0.9375 -150.878906 1.90625 -149.953125 C 2.875 -149.035156 3.359375 -147.660156 3.359375 -145.828125 L 3.359375 -145.671875 C 3.359375 -143.734375 2.875 -142.332031 1.90625 -141.46875 C 0.9375 -140.601562 -0.613281 -139.457031 -2.75 -138.03125 L -119.8125 -69.171875 L -6.421875 -58 C -4.078125 -57.6875 -2.394531 -56.96875 -1.375 -55.84375 C -0.351562 -54.726562 0.15625 -53.097656 0.15625 -50.953125 L 0.15625 -21.265625 C 0.15625 -19.023438 -0.40625 -17.265625 -1.53125 -15.984375 C -2.65625 -14.710938 -4.441406 -14.226562 -6.890625 -14.53125 L -230.296875 -37.03125 C -234.078125 -37.332031 -235.96875 -39.269531 -235.96875 -42.84375 L -235.96875 -43.609375 C -235.96875 -45.546875 -235.476562 -46.867188 -234.5 -47.578125 C -233.53125 -48.296875 -232.234375 -49.164062 -230.609375 -50.1875 L -68.546875 -145.671875 L -230.609375 -241.15625 C -232.234375 -242.175781 -233.53125 -243.046875 -234.5 -243.765625 C -235.476562 -244.484375 -235.96875 -245.8125 -235.96875 -247.75 L -235.96875 -248.359375 C -235.96875 -251.828125 -234.078125 -253.816406 -230.296875 -254.328125 Z M -6.890625 -276.8125 "/></g></g></g></g></g><g transform="matrix(1, 0, 0, 1, 732, 466)"><g clip-path="url(#ce8d690201)"><g fill="#efbf04" fill-opacity="1"><g transform="translate(260.079266, 334.038857)"><g><path d="M -256.34375 -244.203125 C -256.34375 -247.015625 -255.554688 -248.894531 -253.984375 -249.84375 C -252.410156 -250.800781 -250.382812 -250.71875 -247.90625 -249.59375 L -4.046875 -139.5625 C 1.234375 -137.09375 3.875 -133.773438 3.875 -129.609375 L 3.875 -128.9375 C 3.875 -124.4375 1.234375 -121.0625 -4.046875 -118.8125 L -247.75 -8.9375 C -250.332031 -7.8125 -252.410156 -7.785156 -253.984375 -8.859375 C -255.554688 -9.929688 -256.34375 -11.875 -256.34375 -14.6875 L -256.34375 -50.625 C -256.34375 -52.875 -255.722656 -54.726562 -254.484375 -56.1875 C -253.253906 -57.65625 -251.738281 -58.785156 -249.9375 -59.578125 L -88.09375 -129.4375 L -249.9375 -199.140625 C -251.851562 -200.035156 -253.398438 -201.210938 -254.578125 -202.671875 C -255.753906 -204.140625 -256.34375 -205.832031 -256.34375 -207.75 Z M -256.34375 -244.203125 "/></g></g></g></g></g></svg>
